<svg xmlns="http://www.w3.org/2000/svg" viewBox="0 0 106.73 110.62"><defs><style>.cls-1{fill:#a2aecf;}.cls-2{fill:#0b1a44;}.cls-3{fill:#102765;}.cls-4{fill:#d0d6e7;}.cls-5{fill:#7385b7;}.cls-6{fill:#163487;}.cls-20,.cls-7{fill:#fff;}.cls-8{fill:#ebeef0;}.cls-9{font-size:6px;fill:#666;}.cls-20,.cls-9{font-family:Montserrat-SemiBold, Montserrat SemiBold;font-weight:700;}.cls-10{letter-spacing:-0.03em;}.cls-11{letter-spacing:-0.01em;}.cls-12{letter-spacing:0em;}.cls-13{letter-spacing:0em;}.cls-14{letter-spacing:-0.01em;}.cls-15{letter-spacing:0em;}.cls-16{letter-spacing:0em;}.cls-17{letter-spacing:0em;}.cls-18{letter-spacing:-0.01em;}.cls-19{letter-spacing:0em;}.cls-20{font-size:5px;}</style></defs><title>Fichier 2</title><g id="Calque_2" data-name="Calque 2"><g id="Calque_1-2" data-name="Calque 1"><circle class="cls-1" cx="55.68" cy="41.9" r="41.89" transform="translate(-6.53 73.3) rotate(-63.74)"/><path class="cls-2" d="M55.73,41.89V0a41.86,41.86,0,1,1-10.8,1.41Z"/><path class="cls-3" d="M55.78,41.89,56.06,0A41.86,41.86,0,1,1,33.78,6.24Z"/><path class="cls-4" d="M55.73,41.89V0A41.89,41.89,0,1,1,17.5,24.77c.5-1.12,1.05-2.21,1.65-3.28Z"/><path class="cls-5" d="M55.78,41.89,56.06,0A41.89,41.89,0,1,1,15.68,54Z"/><path class="cls-6" d="M55.7,41.89,55.65,0h.74A41.89,41.89,0,1,1,55,83.77h-.48Z"/><circle class="cls-7" cx="55.65" cy="41.89" r="26.12" transform="translate(-7.5 12.5) rotate(-12.02)"/><path class="cls-6" d="M7.51,96.6a3.76,3.76,0,1,1-3.76-3.76A3.75,3.75,0,0,1,7.51,96.6Z"/><path class="cls-8" d="M90.07,96.6a3.76,3.76,0,1,1-3.75-3.76A3.75,3.75,0,0,1,90.07,96.6Z"/><text class="cls-9" transform="translate(11.13 98.71)"><tspan class="cls-10">V</tspan><tspan class="cls-11" x="3.15" y="0">o</tspan><tspan class="cls-12" x="6.4" y="0">y</tspan><tspan x="9.2" y="0">ages</tspan></text><path class="cls-3" d="M7.51,106.86a3.76,3.76,0,1,1-3.76-3.75A3.76,3.76,0,0,1,7.51,106.86Z"/><path class="cls-1" d="M90.07,106.86a3.76,3.76,0,1,1-3.75-3.75A3.75,3.75,0,0,1,90.07,106.86Z"/><path class="cls-5" d="M48.51,96.6a3.76,3.76,0,1,1-3.76-3.76A3.75,3.75,0,0,1,48.51,96.6Z"/><path class="cls-2" d="M48.51,106.86a3.76,3.76,0,1,1-3.76-3.75A3.76,3.76,0,0,1,48.51,106.86Z"/><text class="cls-9" transform="translate(11.13 108.97)">N<tspan class="cls-12" x="3.95" y="0">a</tspan><tspan class="cls-13" x="6.82" y="0">tu</tspan><tspan class="cls-14" x="12.11" y="0">r</tspan><tspan class="cls-15" x="14.01" y="0">e</tspan></text><text class="cls-9" transform="translate(52.13 98.71)"><tspan class="cls-16">C</tspan><tspan x="3.46" y="0">inéma</tspan></text><text class="cls-9" transform="translate(52.13 108.97)"><tspan class="cls-17">B</tspan><tspan x="3.28" y="0">eau</tspan><tspan class="cls-18" x="12.48" y="0">t</tspan><tspan class="cls-15" x="14.43" y="0">é</tspan></text><text class="cls-9" transform="translate(93.7 98.71)">Jeux</text><text class="cls-9" transform="translate(93.7 108.97)"><tspan class="cls-19">D</tspan><tspan x="4.02" y="0">é</tspan><tspan class="cls-18" x="7.03" y="0">c</tspan><tspan x="9.68" y="0">o</tspan></text><text class="cls-20" transform="translate(85.08 48.08)">52%</text><text class="cls-20" transform="translate(29.83 69.83)">19%</text><text class="cls-20" transform="translate(17.58 41.67)">13%</text><text class="cls-20" transform="translate(26.94 19.33)">7%</text><text class="cls-20" transform="translate(38.45 11.58)">5%</text><text class="cls-20" transform="translate(47.51 7.58)">4%</text></g></g></svg>