<?xml version="1.0" encoding="UTF-8" standalone="no"?>
<svg
   xmlns:dc="http://purl.org/dc/elements/1.1/"
   xmlns:cc="http://creativecommons.org/ns#"
   xmlns:rdf="http://www.w3.org/1999/02/22-rdf-syntax-ns#"
   xmlns:svg="http://www.w3.org/2000/svg"
   xmlns="http://www.w3.org/2000/svg"
   xmlns:sodipodi="http://sodipodi.sourceforge.net/DTD/sodipodi-0.dtd"
   xmlns:inkscape="http://www.inkscape.org/namespaces/inkscape"
   viewBox="0 0 224.85 106.83"
   version="1.1"
   id="svg448"
   sodipodi:docname="Fichier 1.svg"
   inkscape:version="0.92.4 (5da689c313, 2019-01-14)">
  <metadata
     id="metadata452">
    <rdf:RDF>
      <cc:Work
         rdf:about="">
        <dc:format>image/svg+xml</dc:format>
        <dc:type
           rdf:resource="http://purl.org/dc/dcmitype/StillImage" />
      </cc:Work>
    </rdf:RDF>
  </metadata>
  <sodipodi:namedview
     pagecolor="#ffffff"
     bordercolor="#666666"
     borderopacity="1"
     objecttolerance="10"
     gridtolerance="10"
     guidetolerance="10"
     inkscape:pageopacity="0"
     inkscape:pageshadow="2"
     inkscape:window-width="1920"
     inkscape:window-height="1017"
     id="namedview450"
     showgrid="false"
     inkscape:zoom="3.9248387"
     inkscape:cx="136.04561"
     inkscape:cy="54.356507"
     inkscape:window-x="-8"
     inkscape:window-y="-8"
     inkscape:window-maximized="1"
     inkscape:current-layer="Calque_2" />
  <defs
     id="defs234">
    <style
       id="style232">.cls-1{fill:#f8f7f7;}.cls-2{fill:#c9cfd9;}.cls-3{fill:#17130e;}.cls-4{fill:#9dc7ec;opacity:0.25;}.cls-5{fill:#4b549f;}.cls-6{fill:#d2e0f3;}.cls-7{fill:#6d91ca;}.cls-8{fill:#fff;}</style>
  </defs>
  <title
     id="title236">Fichier 1</title>
  <g
     id="Calque_2"
     data-name="Calque 2">
    <g
       id="Calque_1-2"
       data-name="Calque 1">
      <path
         class="cls-1"
         d="M128.18,38.09s-1-1-1.75-1.75H115.08a1.72,1.72,0,0,1-1.72-1.72v-9.4H142v9.4a1.72,1.72,0,0,1-1.72,1.72H129.9l-1.72,1.75ZM142,25.22H113.36V24.3a1.83,1.83,0,0,1,1.72-1.92H140.3A1.83,1.83,0,0,1,142,24.3v.92Z"
         id="path238" />
      <path
         class="cls-2"
         d="M210.34,96H3.34a.21.21,0,0,1-.22-.21.22.22,0,0,1,.22-.22h207a.22.22,0,0,1,.22.22.21.21,0,0,1-.22.21Z"
         id="path240" />
      <path
         class="cls-2"
         d="M208.26,72.2H1.26A.21.21,0,0,1,1,72a.22.22,0,0,1,.22-.22h207a.22.22,0,0,1,.22.22.21.21,0,0,1-.22.21Z"
         id="path242" />
      <path
         class="cls-2"
         d="M208.47,47.89H1.47a.22.22,0,0,1-.22-.22.21.21,0,0,1,.22-.21h207a.21.21,0,0,1,.22.21.22.22,0,0,1-.22.22Z"
         id="path244" />
      <path
         class="cls-2"
         d="M208.47,24.2H1.47A.22.22,0,0,1,1.25,24a.21.21,0,0,1,.22-.21h207a.21.21,0,0,1,.22.21.22.22,0,0,1-.22.22Z"
         id="path246" />
      <polygon
         class="cls-2"
         points="205.72 11.42 209.95 11.42 207.83 14.31 205.72 11.42 205.72 11.42"
         id="polygon248" />
      <path
         d="M186.9,14.31h.67L186,10.87h-.63l-1.55,3.44h.66l.34-.8h1.72l.35.8ZM185.05,13l.64-1.5.65,1.5Z"
         id="path250" />
      <polygon
         points="187.94 14.31 188.56 14.31 188.56 10.66 187.94 10.66 187.94 14.31 187.94 14.31"
         id="polygon252" />
      <polygon
         points="189.37 14.31 189.98 14.31 189.98 10.66 189.37 10.66 189.37 14.31 189.37 14.31"
         id="polygon254" />
      <path
         d="M193.56,13.73a.54.54,0,0,1-.35.11.34.34,0,0,1-.36-.39V12.2h.7v-.5h-.7v-.6h-.62v.6h-.43v.5h.43v1.26a.81.81,0,0,0,.91.89,1,1,0,0,0,.59-.18l-.17-.44Z"
         id="path256" />
      <path
         d="M194.55,11.25a.38.38,0,0,0,.39-.38.37.37,0,0,0-.39-.36.38.38,0,0,0-.4.37.38.38,0,0,0,.4.37Zm-.31,3.06h.61V11.68h-.61v2.63Z"
         id="path258" />
      <path
         d="M199,11.65a1.24,1.24,0,0,0-1,.44,1,1,0,0,0-.88-.44,1.1,1.1,0,0,0-.87.37v-.34h-.58v2.63h.61V13c0-.52.28-.79.69-.79s.59.23.59.69v1.43h.61V13c0-.52.28-.79.69-.79s.59.23.59.69v1.43h.61v-1.5A1,1,0,0,0,199,11.65Z"
         id="path260" />
      <path
         d="M203.34,13A1.28,1.28,0,0,0,202,11.65,1.32,1.32,0,0,0,200.65,13a1.47,1.47,0,0,0,2.51.92l-.33-.38a1,1,0,0,1-.71.28.8.8,0,0,1-.86-.63h2.07s0-.13,0-.18ZM202,12.15a.71.71,0,0,1,.74.64h-1.49a.72.72,0,0,1,.75-.64Z"
         id="path262" />
      <path
         class="cls-3"
         d="M76.94,104h1.14a1.66,1.66,0,0,1,.78.18,1.32,1.32,0,0,1,.53.49,1.5,1.5,0,0,1,0,1.46,1.32,1.32,0,0,1-.53.49,1.66,1.66,0,0,1-.78.18H76.94V104Zm1.12,2.54a1.29,1.29,0,0,0,.64-.14,1,1,0,0,0,.43-.41,1.17,1.17,0,0,0,0-1.18,1,1,0,0,0-.43-.41,1.29,1.29,0,0,0-.64-.14h-.83v2.28Z"
         id="path328" />
      <path
         class="cls-3"
         d="M82,105.85H80.25a.75.75,0,0,0,.26.53.84.84,0,0,0,.57.2,1,1,0,0,0,.36-.07,1,1,0,0,0,.29-.21l.16.19a1.07,1.07,0,0,1-.35.25,1.23,1.23,0,0,1-.47.09,1.17,1.17,0,0,1-.57-.14,1,1,0,0,1-.39-.38,1.12,1.12,0,0,1-.14-.55,1.09,1.09,0,0,1,.13-.55.9.9,0,0,1,.37-.38,1,1,0,0,1,.53-.14.92.92,0,0,1,.52.14,1,1,0,0,1,.37.37,1.25,1.25,0,0,1,.13.56v.09Zm-1-.92a.69.69,0,0,0-.51.2.77.77,0,0,0-.24.5h1.49a.71.71,0,0,0-.23-.5.73.73,0,0,0-.51-.2Zm.29-1.05h.38l-.65.5h-.28l.55-.5Z"
         id="path330" />
      <path
         class="cls-3"
         d="M83.47,106.83a1.06,1.06,0,0,1-.56-.14,1,1,0,0,1-.39-.38,1.12,1.12,0,0,1-.13-.55,1.09,1.09,0,0,1,.13-.55,1,1,0,0,1,.39-.38,1.06,1.06,0,0,1,.56-.14,1,1,0,0,1,.48.11.73.73,0,0,1,.34.31l-.21.14a.71.71,0,0,0-.26-.23.72.72,0,0,0-.35-.08.8.8,0,0,0-.41.1.74.74,0,0,0-.29.29,1,1,0,0,0-.1.43,1,1,0,0,0,.1.43.81.81,0,0,0,.29.29.92.92,0,0,0,.41.1.85.85,0,0,0,.35-.08.71.71,0,0,0,.26-.23l.21.14a.73.73,0,0,1-.34.31,1.06,1.06,0,0,1-.48.11Z"
         id="path332" />
      <path
         class="cls-3"
         d="M86.64,105.85H84.89a.74.74,0,0,0,.25.53.84.84,0,0,0,.57.2,1,1,0,0,0,.36-.07.86.86,0,0,0,.29-.21l.16.19a1,1,0,0,1-.35.25,1.18,1.18,0,0,1-.46.09,1.21,1.21,0,0,1-.58-.14,1,1,0,0,1-.39-.38,1.12,1.12,0,0,1-.14-.55,1.09,1.09,0,0,1,.13-.55,1,1,0,0,1,.37-.38,1,1,0,0,1,.53-.14.92.92,0,0,1,.52.14.94.94,0,0,1,.37.37,1.25,1.25,0,0,1,.13.56v.09Zm-1-.92a.73.73,0,0,0-.51.2.71.71,0,0,0-.23.5h1.49a.77.77,0,0,0-.24-.5.73.73,0,0,0-.51-.2Z"
         id="path334" />
      <path
         class="cls-3"
         d="M89.85,104.69a.83.83,0,0,1,.62.23.87.87,0,0,1,.23.67v1.22h-.28v-1.19a.73.73,0,0,0-.16-.5.57.57,0,0,0-.45-.17.63.63,0,0,0-.51.2.76.76,0,0,0-.19.56v1.1h-.29v-1.19a.73.73,0,0,0-.15-.5.57.57,0,0,0-.45-.17.66.66,0,0,0-.52.2.81.81,0,0,0-.19.56v1.1h-.28v-2.1h.27v.38a.81.81,0,0,1,.31-.3,1,1,0,0,1,.46-.1,1,1,0,0,1,.46.11.72.72,0,0,1,.29.33.81.81,0,0,1,.34-.32,1,1,0,0,1,.49-.12Z"
         id="path336" />
      <path
         class="cls-3"
         d="M92.56,104.69a1.07,1.07,0,0,1,.53.13,1,1,0,0,1,.38.38,1.13,1.13,0,0,1,.14.56,1.1,1.1,0,0,1-.14.55.93.93,0,0,1-.38.38,1,1,0,0,1-.53.14,1.06,1.06,0,0,1-.48-.11,1,1,0,0,1-.34-.33v.42h-.27v-3h.29v1.27a.84.84,0,0,1,.34-.31.87.87,0,0,1,.46-.11Zm0,1.89a.91.91,0,0,0,.4-.1.78.78,0,0,0,.28-.29.88.88,0,0,0,.1-.43.85.85,0,0,0-.1-.43.71.71,0,0,0-.28-.29.79.79,0,0,0-.4-.1.74.74,0,0,0-.4.1.74.74,0,0,0-.29.29,1,1,0,0,0-.1.43,1,1,0,0,0,.1.43.81.81,0,0,0,.29.29.85.85,0,0,0,.4.1Z"
         id="path338" />
      <path
         class="cls-3"
         d="M94.46,105.12a.62.62,0,0,1,.3-.32,1,1,0,0,1,.48-.11V105h-.06a.66.66,0,0,0-.52.21.77.77,0,0,0-.19.57v1.07h-.29v-2.1h.28v.41Z"
         id="path340" />
      <path
         class="cls-3"
         d="M97.57,105.85H95.81a.78.78,0,0,0,.25.53.85.85,0,0,0,.58.2,1,1,0,0,0,.36-.07.83.83,0,0,0,.28-.21l.16.19a.9.9,0,0,1-.35.25,1.14,1.14,0,0,1-.46.09,1.21,1.21,0,0,1-.58-.14,1.09,1.09,0,0,1-.39-.38,1.12,1.12,0,0,1-.14-.55,1.1,1.1,0,0,1,.14-.55.9.9,0,0,1,.37-.38.92.92,0,0,1,.52-.14,1,1,0,0,1,.53.14,1,1,0,0,1,.36.37,1.13,1.13,0,0,1,.13.56v.09Zm-1-.92a.73.73,0,0,0-.51.2.76.76,0,0,0-.23.5H97.3a.81.81,0,0,0-.23-.5.73.73,0,0,0-.52-.2Z"
         id="path342" />
      <path
         class="cls-3"
         d="M121.77,106.83a1,1,0,0,1-.44-.1.8.8,0,0,1-.33-.3l.17-.2a.72.72,0,0,0,.61.35c.35,0,.52-.21.52-.62v-1.69h-1V104h1.32V106a.93.93,0,0,1-.21.66.77.77,0,0,1-.61.22Z"
         id="path344" />
      <path
         class="cls-3"
         d="M124.15,104.69a.9.9,0,0,1,.64.21.81.81,0,0,1,.22.61v1.3h-.28v-.33a.59.59,0,0,1-.28.26,1,1,0,0,1-.44.09.87.87,0,0,1-.56-.17.54.54,0,0,1-.21-.44.52.52,0,0,1,.2-.43.93.93,0,0,1,.61-.17h.67v-.13a.53.53,0,0,0-.15-.41.6.6,0,0,0-.44-.14,1.23,1.23,0,0,0-.39.06,1,1,0,0,0-.31.19l-.13-.22a1.07,1.07,0,0,1,.38-.21,1.49,1.49,0,0,1,.47-.07Zm-.1,1.92a.82.82,0,0,0,.42-.11.67.67,0,0,0,.25-.32v-.35h-.66c-.36,0-.54.13-.54.38a.36.36,0,0,0,.14.29.65.65,0,0,0,.39.11Z"
         id="path346" />
      <path
         class="cls-3"
         d="M126.85,104.69a.8.8,0,0,1,.86.9v1.22h-.28v-1.19a.68.68,0,0,0-.16-.5.61.61,0,0,0-.47-.17.69.69,0,0,0-.54.2.77.77,0,0,0-.2.56v1.1h-.28v-2.1h.27v.38a.82.82,0,0,1,.32-.29,1,1,0,0,1,.48-.11Z"
         id="path348" />
      <polygon
         class="cls-3"
         points="130.21 104.71 129.28 106.81 128.99 106.81 128.05 104.71 128.35 104.71 129.14 106.5 129.93 104.71 130.21 104.71 130.21 104.71"
         id="polygon350" />
      <path
         class="cls-3"
         d="M130.61,104.71h.29v2.1h-.29v-2.1Zm.15-.46a.21.21,0,0,1-.21-.21.2.2,0,0,1,.06-.14.22.22,0,0,1,.3,0,.18.18,0,0,1,.06.14.21.21,0,0,1-.21.21Z"
         id="path352" />
      <path
         class="cls-3"
         d="M133.52,105.85h-1.76a.78.78,0,0,0,.25.53.89.89,0,0,0,.58.2,1,1,0,0,0,.36-.07.83.83,0,0,0,.28-.21l.16.19a.9.9,0,0,1-.35.25,1.14,1.14,0,0,1-.46.09,1.17,1.17,0,0,1-.57-.14,1,1,0,0,1-.39-.38,1,1,0,0,1-.14-.55,1.09,1.09,0,0,1,.13-.55.9.9,0,0,1,.37-.38,1,1,0,0,1,.53-.14,1,1,0,0,1,.52.14.92.92,0,0,1,.36.37,1.13,1.13,0,0,1,.14.56v.09Zm-1-.92a.69.69,0,0,0-.51.2.77.77,0,0,0-.24.5h1.49a.71.71,0,0,0-.23-.5.73.73,0,0,0-.51-.2Z"
         id="path354" />
      <path
         class="cls-3"
         d="M134.38,105.12a.67.67,0,0,1,.3-.32,1,1,0,0,1,.49-.11V105h-.07a.66.66,0,0,0-.52.21.77.77,0,0,0-.19.57v1.07h-.28v-2.1h.27v.41Z"
         id="path356" />
      <polygon
         class="cls-3"
         points="157.77 104.27 157.77 105.37 159.21 105.37 159.21 105.62 157.77 105.62 157.77 106.81 157.47 106.81 157.47 104.01 159.39 104.01 159.39 104.27 157.77 104.27 157.77 104.27"
         id="polygon358" />
      <path
         class="cls-3"
         d="M161.7,105.85h-1.76a.78.78,0,0,0,.25.53.89.89,0,0,0,.58.2,1,1,0,0,0,.36-.07.83.83,0,0,0,.28-.21l.16.19a.9.9,0,0,1-.35.25,1.14,1.14,0,0,1-.46.09,1.2,1.2,0,0,1-.57-.14,1,1,0,0,1-.39-.38,1,1,0,0,1-.14-.55,1.09,1.09,0,0,1,.13-.55.9.9,0,0,1,.37-.38,1,1,0,0,1,.53-.14,1,1,0,0,1,.52.14.92.92,0,0,1,.36.37,1.13,1.13,0,0,1,.14.56v.09Zm-1-.92a.69.69,0,0,0-.51.2.77.77,0,0,0-.24.5h1.49a.71.71,0,0,0-.23-.5.73.73,0,0,0-.51-.2Zm.28-1.05h.38l-.64.5h-.28l.54-.5Z"
         id="path360" />
      <polygon
         class="cls-3"
         points="164.01 104.71 163.08 106.81 162.79 106.81 161.85 104.71 162.15 104.71 162.94 106.5 163.73 104.71 164.01 104.71 164.01 104.71"
         id="polygon362" />
      <path
         class="cls-3"
         d="M164.69,105.12a.65.65,0,0,1,.29-.32,1.07,1.07,0,0,1,.49-.11V105h-.06a.64.64,0,0,0-.52.21.77.77,0,0,0-.19.57v1.07h-.29v-2.1h.28v.41Z"
         id="path364" />
      <path
         class="cls-3"
         d="M166,104.71h.28v2.1H166v-2.1Zm.14-.46a.21.21,0,0,1-.21-.21.2.2,0,0,1,.06-.14.22.22,0,0,1,.3,0,.18.18,0,0,1,.06.14.21.21,0,0,1-.21.21Z"
         id="path366" />
      <path
         class="cls-3"
         d="M168.89,105.85h-1.76a.75.75,0,0,0,.26.53.84.84,0,0,0,.57.2,1,1,0,0,0,.36-.07.86.86,0,0,0,.29-.21l.16.19a1,1,0,0,1-.35.25,1.25,1.25,0,0,1-1,0,1,1,0,0,1-.39-.38,1.12,1.12,0,0,1-.14-.55,1.09,1.09,0,0,1,.13-.55,1,1,0,0,1,.37-.38,1,1,0,0,1,.53-.14.92.92,0,0,1,.52.14.94.94,0,0,1,.37.37,1.25,1.25,0,0,1,.13.56v.09Zm-1-.92a.71.71,0,0,0-.51.2.77.77,0,0,0-.24.5h1.5a.77.77,0,0,0-.24-.5.71.71,0,0,0-.51-.2Z"
         id="path368" />
      <path
         class="cls-3"
         d="M169.75,105.12a.72.72,0,0,1,.3-.32,1,1,0,0,1,.49-.11V105h-.07a.67.67,0,0,0-.52.21.77.77,0,0,0-.19.57v1.07h-.28v-2.1h.27v.41Z"
         id="path370" />
      <polygon
         class="cls-3"
         points="195.46 104.01 195.46 106.81 195.18 106.81 195.18 104.57 194.07 106.45 193.94 106.45 192.84 104.58 192.84 106.81 192.55 106.81 192.55 104.01 192.79 104.01 194.01 106.09 195.22 104.01 195.46 104.01 195.46 104.01"
         id="polygon372" />
      <path
         class="cls-3"
         d="M197.05,104.69a.89.89,0,0,1,.63.21.77.77,0,0,1,.22.61v1.3h-.27v-.33a.7.7,0,0,1-.28.26,1.06,1.06,0,0,1-.45.09.89.89,0,0,1-.56-.17.54.54,0,0,1-.21-.44.52.52,0,0,1,.2-.43.94.94,0,0,1,.62-.17h.66v-.13a.53.53,0,0,0-.15-.41.6.6,0,0,0-.44-.14,1.16,1.16,0,0,0-.38.06,1,1,0,0,0-.32.19l-.13-.22a1.12,1.12,0,0,1,.39-.21,1.41,1.41,0,0,1,.47-.07Zm-.1,1.92a.78.78,0,0,0,.41-.11.67.67,0,0,0,.25-.32v-.35H197c-.36,0-.55.13-.55.38a.36.36,0,0,0,.14.29.68.68,0,0,0,.4.11Z"
         id="path374" />
      <path
         class="cls-3"
         d="M198.94,105.12a.72.72,0,0,1,.3-.32,1,1,0,0,1,.49-.11V105h-.07a.67.67,0,0,0-.52.21.81.81,0,0,0-.19.57v1.07h-.28v-2.1h.27v.41Z"
         id="path376" />
      <path
         class="cls-3"
         d="M200.82,106.83a2,2,0,0,1-.49-.07,1.1,1.1,0,0,1-.36-.19l.13-.22a1,1,0,0,0,.33.17,1.4,1.4,0,0,0,.41.06.81.81,0,0,0,.43-.09.29.29,0,0,0,.14-.25.22.22,0,0,0-.08-.18.39.39,0,0,0-.19-.1,1.61,1.61,0,0,0-.31-.07,3.53,3.53,0,0,1-.41-.1.59.59,0,0,1-.27-.17.49.49,0,0,1-.11-.33.53.53,0,0,1,.22-.43,1,1,0,0,1,.62-.17,1.83,1.83,0,0,1,.4,0,1.2,1.2,0,0,1,.34.15l-.13.22a1,1,0,0,0-.61-.18.79.79,0,0,0-.42.1.29.29,0,0,0-.13.25.24.24,0,0,0,.07.19.49.49,0,0,0,.2.11,2.74,2.74,0,0,0,.32.07,2.1,2.1,0,0,1,.4.1.54.54,0,0,1,.26.16.46.46,0,0,1,.11.32.53.53,0,0,1-.23.44,1.06,1.06,0,0,1-.64.16Z"
         id="path378" />
      <polygon
         class="cls-3"
         points="219.68 23.9 219.68 24.1 218.51 26.7 218.2 26.7 219.35 24.16 217.91 24.16 217.91 24.68 217.63 24.68 217.63 23.9 219.68 23.9 219.68 23.9"
         id="polygon380" />
      <path
         class="cls-3"
         d="M220.72,25.05a1.42,1.42,0,0,1,.89.22.73.73,0,0,1,.28.61.8.8,0,0,1-.12.43.72.72,0,0,1-.34.3,1.19,1.19,0,0,1-.56.11,1.79,1.79,0,0,1-.57-.09,1.22,1.22,0,0,1-.43-.27l.14-.22a1.06,1.06,0,0,0,.36.23,1.39,1.39,0,0,0,.5.09.76.76,0,0,0,.53-.16.49.49,0,0,0,.19-.41.51.51,0,0,0-.21-.44,1.29,1.29,0,0,0-.72-.15h-.6l.15-1.4h1.53v.26h-1.28l-.1.89Z"
         id="path382" />
      <path
         class="cls-3"
         d="M223.37,26.72a1,1,0,0,1-.58-.17,1.16,1.16,0,0,1-.4-.49,2.13,2.13,0,0,1,0-1.52,1.16,1.16,0,0,1,.4-.49,1,1,0,0,1,.58-.17,1,1,0,0,1,.57.17,1.09,1.09,0,0,1,.4.49,2,2,0,0,1,0,1.52,1.09,1.09,0,0,1-.4.49,1,1,0,0,1-.57.17Zm0-.26a.74.74,0,0,0,.43-.14.91.91,0,0,0,.29-.39,1.67,1.67,0,0,0,.1-.63,1.7,1.7,0,0,0-.1-.63.91.91,0,0,0-.29-.39.74.74,0,0,0-.43-.14.69.69,0,0,0-.43.14.84.84,0,0,0-.29.39,1.69,1.69,0,0,0-.11.63,1.65,1.65,0,0,0,.11.63.84.84,0,0,0,.29.39.69.69,0,0,0,.43.14Z"
         id="path384" />
      <path
         class="cls-3"
         d="M218.44,46.59a1.42,1.42,0,0,1,.89.22.73.73,0,0,1,.28.61.8.8,0,0,1-.12.43.72.72,0,0,1-.34.3,1.19,1.19,0,0,1-.56.11,1.79,1.79,0,0,1-.57-.09,1.22,1.22,0,0,1-.43-.27l.14-.22a1.06,1.06,0,0,0,.36.23,1.39,1.39,0,0,0,.5.09.76.76,0,0,0,.53-.16.49.49,0,0,0,.19-.41.51.51,0,0,0-.21-.44,1.29,1.29,0,0,0-.72-.15h-.6l.15-1.4h1.53v.26h-1.28l-.1.89Z"
         id="path386" />
      <path
         class="cls-3"
         d="M221.09,48.26a1,1,0,0,1-.58-.17,1.16,1.16,0,0,1-.4-.49,2.13,2.13,0,0,1,0-1.52,1.16,1.16,0,0,1,.4-.49,1,1,0,0,1,.58-.17,1,1,0,0,1,.57.17,1.09,1.09,0,0,1,.4.49,2,2,0,0,1,0,1.52,1.09,1.09,0,0,1-.4.49,1,1,0,0,1-.57.17Zm0-.26a.74.74,0,0,0,.43-.14.91.91,0,0,0,.29-.39,1.74,1.74,0,0,0,.1-.63,1.67,1.67,0,0,0-.1-.63.91.91,0,0,0-.29-.39.74.74,0,0,0-.43-.14.69.69,0,0,0-.43.14.84.84,0,0,0-.29.39,1.65,1.65,0,0,0-.11.63,1.73,1.73,0,0,0,.11.63.84.84,0,0,0,.29.39.69.69,0,0,0,.43.14Z"
         id="path388" />
      <path
         class="cls-3"
         d="M223.73,48.26a1,1,0,0,1-.57-.17,1.16,1.16,0,0,1-.4-.49,2.13,2.13,0,0,1,0-1.52,1.16,1.16,0,0,1,.4-.49,1,1,0,0,1,.57-.17,1,1,0,0,1,.58.17,1.16,1.16,0,0,1,.4.49,2.13,2.13,0,0,1,0,1.52,1.16,1.16,0,0,1-.4.49,1,1,0,0,1-.58.17Zm0-.26a.69.69,0,0,0,.43-.14.78.78,0,0,0,.29-.39,1.73,1.73,0,0,0,.11-.63,1.65,1.65,0,0,0-.11-.63.78.78,0,0,0-.29-.39.69.69,0,0,0-.43-.14.74.74,0,0,0-.43.14.91.91,0,0,0-.29.39,1.89,1.89,0,0,0-.1.63,2,2,0,0,0,.1.63.91.91,0,0,0,.29.39.74.74,0,0,0,.43.14Z"
         id="path390" />
      <path
         class="cls-3"
         d="M219.62,73v.25h-2v-.2l1.17-1.14a2,2,0,0,0,.3-.37.77.77,0,0,0,.07-.32.45.45,0,0,0-.17-.39.74.74,0,0,0-.48-.14,1,1,0,0,0-.77.32l-.2-.18a1.08,1.08,0,0,1,.42-.3,1.48,1.48,0,0,1,.57-.1,1.08,1.08,0,0,1,.68.2.68.68,0,0,1,.25.56.86.86,0,0,1-.1.41,1.49,1.49,0,0,1-.36.46l-.95.94Z"
         id="path392" />
      <path
         class="cls-3"
         d="M220.71,71.6a1.4,1.4,0,0,1,.89.22.73.73,0,0,1,.28.61.83.83,0,0,1-.12.44.77.77,0,0,1-.34.3,1.33,1.33,0,0,1-.56.11,1.56,1.56,0,0,1-.57-.1,1.2,1.2,0,0,1-.43-.26l.14-.23a.9.9,0,0,0,.37.23,1.3,1.3,0,0,0,.49.09.87.87,0,0,0,.54-.15.54.54,0,0,0,.19-.42.49.49,0,0,0-.22-.43,1.29,1.29,0,0,0-.72-.15h-.6l.15-1.41h1.53v.26h-1.28l-.1.89Z"
         id="path394" />
      <path
         class="cls-3"
         d="M223.36,73.28a1,1,0,0,1-.58-.17,1.19,1.19,0,0,1-.4-.5,1.94,1.94,0,0,1-.14-.76,1.89,1.89,0,0,1,.14-.75,1.19,1.19,0,0,1,.4-.5,1,1,0,0,1,.58-.17,1.06,1.06,0,0,1,.58.17,1.1,1.1,0,0,1,.39.5,1.73,1.73,0,0,1,.15.75,1.78,1.78,0,0,1-.15.76,1.1,1.1,0,0,1-.39.5,1.06,1.06,0,0,1-.58.17Zm0-.27a.73.73,0,0,0,.43-.13.89.89,0,0,0,.29-.4,1.67,1.67,0,0,0,.1-.63,1.65,1.65,0,0,0-.1-.62.89.89,0,0,0-.29-.4.74.74,0,0,0-.43-.14.71.71,0,0,0-.43.14.82.82,0,0,0-.29.4,1.64,1.64,0,0,0-.11.62,1.65,1.65,0,0,0,.11.63.82.82,0,0,0,.29.4.71.71,0,0,0,.43.13Z"
         id="path396" />
      <path
         class="cls-3"
         d="M218.82,96.16a1,1,0,0,1-.58-.18,1.08,1.08,0,0,1-.39-.49,1.78,1.78,0,0,1-.14-.76,1.73,1.73,0,0,1,.14-.75,1.17,1.17,0,0,1,.39-.5,1.06,1.06,0,0,1,.58-.17,1,1,0,0,1,.58.17,1.19,1.19,0,0,1,.4.5,1.89,1.89,0,0,1,.14.75,1.94,1.94,0,0,1-.14.76,1.1,1.1,0,0,1-.4.49,1,1,0,0,1-.58.18Zm0-.27a.69.69,0,0,0,.43-.13.87.87,0,0,0,.29-.4,1.65,1.65,0,0,0,.11-.63,1.73,1.73,0,0,0-.11-.63.84.84,0,0,0-.29-.39.69.69,0,0,0-.43-.14.74.74,0,0,0-.43.14.91.91,0,0,0-.29.39,1.74,1.74,0,0,0-.1.63,1.67,1.67,0,0,0,.1.63.94.94,0,0,0,.29.4.73.73,0,0,0,.43.13Z"
         id="path398" />
      <polygon
         class="cls-3"
         points="42.06 104.01 42.06 106.81 41.82 106.81 40.02 104.54 40.02 106.81 39.72 106.81 39.72 104.01 39.96 104.01 41.77 106.28 41.77 104.01 42.06 104.01 42.06 104.01"
         id="polygon400" />
      <path
         class="cls-3"
         d="M43.77,106.83a1.15,1.15,0,0,1-.55-.14,1,1,0,0,1-.38-.38,1.12,1.12,0,0,1-.14-.55,1.1,1.1,0,0,1,.14-.55.93.93,0,0,1,.38-.38,1,1,0,0,1,.55-.14,1,1,0,0,1,.55.14.93.93,0,0,1,.38.38,1.1,1.1,0,0,1,.14.55,1.12,1.12,0,0,1-.14.55,1,1,0,0,1-.38.38,1.12,1.12,0,0,1-.55.14Zm0-.25a.85.85,0,0,0,.4-.1.71.71,0,0,0,.28-.29.88.88,0,0,0,.1-.43.85.85,0,0,0-.1-.43.65.65,0,0,0-.28-.29.74.74,0,0,0-.4-.1.77.77,0,0,0-.4.1.71.71,0,0,0-.28.29.85.85,0,0,0-.1.43.88.88,0,0,0,.1.43.78.78,0,0,0,.28.29.88.88,0,0,0,.4.1Z"
         id="path402" />
      <polygon
         class="cls-3"
         points="47.13 104.71 46.19 106.81 45.9 106.81 44.97 104.71 45.26 104.71 46.05 106.5 46.85 104.71 47.13 104.71 47.13 104.71"
         id="polygon404" />
      <path
         class="cls-3"
         d="M49.3,105.85H47.54a.78.78,0,0,0,.25.53.87.87,0,0,0,.58.2,1,1,0,0,0,.36-.07.83.83,0,0,0,.28-.21l.16.19a.9.9,0,0,1-.35.25,1.23,1.23,0,0,1-1,0,1,1,0,0,1-.39-.38,1,1,0,0,1-.14-.55,1.09,1.09,0,0,1,.13-.55.9.9,0,0,1,.37-.38.92.92,0,0,1,.52-.14,1,1,0,0,1,.53.14,1,1,0,0,1,.36.37,1.13,1.13,0,0,1,.13.56v.09Zm-1-.92a.73.73,0,0,0-.51.2.81.81,0,0,0-.23.5H49a.76.76,0,0,0-.23-.5.73.73,0,0,0-.52-.2Z"
         id="path406" />
      <path
         class="cls-3"
         d="M52.51,104.69a.85.85,0,0,1,.62.23.91.91,0,0,1,.23.67v1.22h-.29v-1.19a.68.68,0,0,0-.16-.5.54.54,0,0,0-.44-.17.66.66,0,0,0-.52.2.81.81,0,0,0-.19.56v1.1h-.28v-1.19a.68.68,0,0,0-.16-.5.55.55,0,0,0-.45-.17.64.64,0,0,0-.51.2.76.76,0,0,0-.19.56v1.1h-.29v-2.1h.28v.38a.69.69,0,0,1,.31-.3,1,1,0,0,1,.46-.1,1,1,0,0,1,.46.11.78.78,0,0,1,.29.33.73.73,0,0,1,.33-.32,1,1,0,0,1,.5-.12Z"
         id="path408" />
      <path
         class="cls-3"
         d="M55.21,104.69a1.08,1.08,0,0,1,.54.13,1,1,0,0,1,.37.38,1.13,1.13,0,0,1,.14.56,1.1,1.1,0,0,1-.14.55.9.9,0,0,1-.37.38,1,1,0,0,1-.54.14,1,1,0,0,1-.47-.11,1,1,0,0,1-.34-.33v.42h-.27v-3h.28v1.27a.84.84,0,0,1,.34-.31.9.9,0,0,1,.46-.11Zm0,1.89a.88.88,0,0,0,.4-.1.71.71,0,0,0,.28-.29.89.89,0,0,0,.11-.43.86.86,0,0,0-.11-.43.65.65,0,0,0-.28-.29.85.85,0,0,0-.8,0,.71.71,0,0,0-.28.29.85.85,0,0,0-.1.43.88.88,0,0,0,.1.43.78.78,0,0,0,.28.29.88.88,0,0,0,.4.1Z"
         id="path410" />
      <path
         class="cls-3"
         d="M57.11,105.12a.72.72,0,0,1,.3-.32,1,1,0,0,1,.49-.11V105h-.07a.67.67,0,0,0-.52.21.81.81,0,0,0-.19.57v1.07h-.28v-2.1h.27v.41Z"
         id="path412" />
      <path
         class="cls-3"
         d="M60.22,105.85H58.46a.75.75,0,0,0,.26.53.84.84,0,0,0,.57.2,1,1,0,0,0,.36-.07.86.86,0,0,0,.29-.21l.16.19a1,1,0,0,1-.35.25,1.25,1.25,0,0,1-1,0,1,1,0,0,1-.39-.38,1.12,1.12,0,0,1-.14-.55,1.09,1.09,0,0,1,.13-.55,1,1,0,0,1,.37-.38,1,1,0,0,1,.53-.14.92.92,0,0,1,.52.14.94.94,0,0,1,.37.37,1.25,1.25,0,0,1,.13.56v.09Zm-1-.92a.73.73,0,0,0-.51.2.77.77,0,0,0-.24.5H60a.77.77,0,0,0-.24-.5.73.73,0,0,0-.51-.2Z"
         id="path414" />
      <path
         class="cls-3"
         d="M3.42,106.83a1.57,1.57,0,0,1-.75-.18,1.44,1.44,0,0,1-.53-.51,1.5,1.5,0,0,1,0-1.46,1.44,1.44,0,0,1,.53-.51,1.57,1.57,0,0,1,.75-.18,1.54,1.54,0,0,1,.75.18,1.3,1.3,0,0,1,.53.51,1.5,1.5,0,0,1,0,1.46,1.3,1.3,0,0,1-.53.51,1.54,1.54,0,0,1-.75.18Zm0-.26a1.21,1.21,0,0,0,.6-.15,1.06,1.06,0,0,0,.42-.42,1.17,1.17,0,0,0,0-1.18A1.06,1.06,0,0,0,4,104.4a1.27,1.27,0,0,0-1.2,0,1.17,1.17,0,0,0,0,2,1.21,1.21,0,0,0,.6.15Z"
         id="path416" />
      <path
         class="cls-3"
         d="M6.37,106.83a1,1,0,0,1-.56-.14,1,1,0,0,1-.39-.38,1.12,1.12,0,0,1-.14-.55,1.1,1.1,0,0,1,.14-.55,1,1,0,0,1,.39-.38,1,1,0,0,1,.56-.14,1,1,0,0,1,.48.11.73.73,0,0,1,.34.31l-.21.14a.67.67,0,0,0-.27-.23.66.66,0,0,0-.34-.08A.78.78,0,0,0,6,105a.74.74,0,0,0-.29.29.85.85,0,0,0-.1.43.88.88,0,0,0,.1.43.81.81,0,0,0,.29.29.89.89,0,0,0,.41.1.77.77,0,0,0,.34-.08.67.67,0,0,0,.27-.23l.21.14a.78.78,0,0,1-.34.31,1.06,1.06,0,0,1-.48.11Z"
         id="path418" />
      <path
         class="cls-3"
         d="M8.88,106.68a.43.43,0,0,1-.2.11.69.69,0,0,1-.25,0,.56.56,0,0,1-.61-.61V105H7.44v-.24h.38v-.46H8.1v.46h.64V105H8.1v1.25a.38.38,0,0,0,.1.29.37.37,0,0,0,.27.1.51.51,0,0,0,.17,0l.14-.08.1.2Z"
         id="path420" />
      <path
         class="cls-3"
         d="M10.18,106.83a1.12,1.12,0,0,1-.55-.14,1,1,0,0,1-.38-.38,1,1,0,0,1-.14-.55,1,1,0,0,1,.14-.55.93.93,0,0,1,.38-.38,1,1,0,0,1,.55-.14,1,1,0,0,1,.55.14.93.93,0,0,1,.38.38,1.1,1.1,0,0,1,.14.55,1.12,1.12,0,0,1-.14.55,1,1,0,0,1-.38.38,1.15,1.15,0,0,1-.55.14Zm0-.25a.88.88,0,0,0,.4-.1.78.78,0,0,0,.28-.29.88.88,0,0,0,.1-.43.85.85,0,0,0-.1-.43.71.71,0,0,0-.28-.29.85.85,0,0,0-.8,0,.65.65,0,0,0-.28.29.86.86,0,0,0-.11.43.89.89,0,0,0,.11.43.71.71,0,0,0,.28.29.88.88,0,0,0,.4.1Z"
         id="path422" />
      <path
         class="cls-3"
         d="M12.91,104.69a1.08,1.08,0,0,1,.54.13,1,1,0,0,1,.37.38,1.13,1.13,0,0,1,.14.56,1.1,1.1,0,0,1-.14.55.9.9,0,0,1-.37.38,1,1,0,0,1-.54.14,1,1,0,0,1-.47-.11.9.9,0,0,1-.34-.33v.42h-.27v-3h.28v1.27a.84.84,0,0,1,.34-.31.9.9,0,0,1,.46-.11Zm0,1.89a.88.88,0,0,0,.4-.1.78.78,0,0,0,.28-.29.88.88,0,0,0,.1-.43.85.85,0,0,0-.1-.43.71.71,0,0,0-.28-.29.85.85,0,0,0-.8,0,.71.71,0,0,0-.28.29.85.85,0,0,0-.1.43.88.88,0,0,0,.1.43.78.78,0,0,0,.28.29.88.88,0,0,0,.4.1Z"
         id="path424" />
      <path
         class="cls-3"
         d="M14.81,105.12a.72.72,0,0,1,.3-.32,1,1,0,0,1,.49-.11V105h-.07a.67.67,0,0,0-.52.21.81.81,0,0,0-.19.57v1.07h-.28v-2.1h.27v.41Z"
         id="path426" />
      <path
         class="cls-3"
         d="M17.92,105.85H16.16a.78.78,0,0,0,.25.53.89.89,0,0,0,.58.2,1,1,0,0,0,.36-.07,1,1,0,0,0,.29-.21l.15.19a.9.9,0,0,1-.35.25,1.14,1.14,0,0,1-.46.09,1.2,1.2,0,0,1-.57-.14,1,1,0,0,1-.39-.38,1.12,1.12,0,0,1-.14-.55,1.09,1.09,0,0,1,.13-.55,1,1,0,0,1,.37-.38,1,1,0,0,1,.53-.14.92.92,0,0,1,.52.14.86.86,0,0,1,.36.37,1.13,1.13,0,0,1,.14.56v.09Zm-1-.92a.69.69,0,0,0-.51.2.77.77,0,0,0-.24.5h1.49a.71.71,0,0,0-.23-.5.73.73,0,0,0-.51-.2Z"
         id="path428" />
      <path
         class="cls-3"
         d="M123.72,28.86a2.22,2.22,0,0,1,1.33.32,1.11,1.11,0,0,1,.42.92,1.29,1.29,0,0,1-.17.65,1.23,1.23,0,0,1-.52.46,1.86,1.86,0,0,1-.83.16,2.43,2.43,0,0,1-.86-.15,1.66,1.66,0,0,1-.65-.39l.21-.34a1.58,1.58,0,0,0,.55.35,2,2,0,0,0,.74.13,1.22,1.22,0,0,0,.81-.23.83.83,0,0,0,0-1.28,2.05,2.05,0,0,0-1.08-.22h-.9l.22-2.11h2.3v.39h-1.92l-.15,1.34Z"
         id="path430" />
      <path
         class="cls-3"
         d="M127.69,31.37a1.56,1.56,0,0,1-.87-.26,1.69,1.69,0,0,1-.59-.74,3.17,3.17,0,0,1,0-2.27,1.69,1.69,0,0,1,.59-.74,1.59,1.59,0,0,1,1.74,0,1.69,1.69,0,0,1,.59.74,3,3,0,0,1,0,2.27,1.69,1.69,0,0,1-.59.74,1.56,1.56,0,0,1-.87.26Zm0-.4a1,1,0,0,0,.64-.2,1.35,1.35,0,0,0,.44-.59,2.87,2.87,0,0,0,0-1.89,1.3,1.3,0,0,0-.44-.59,1,1,0,0,0-.64-.21,1.05,1.05,0,0,0-.65.21,1.28,1.28,0,0,0-.43.59,2.87,2.87,0,0,0,0,1.89,1.33,1.33,0,0,0,.43.59,1,1,0,0,0,.65.2Z"
         id="path432" />
      <path
         class="cls-3"
         d="M131.66,31.37a1.56,1.56,0,0,1-.87-.26,1.69,1.69,0,0,1-.59-.74,3.17,3.17,0,0,1,0-2.27,1.69,1.69,0,0,1,.59-.74,1.59,1.59,0,0,1,1.74,0,1.69,1.69,0,0,1,.59.74,3,3,0,0,1,0,2.27,1.69,1.69,0,0,1-.59.74,1.56,1.56,0,0,1-.87.26Zm0-.4a1.07,1.07,0,0,0,.65-.2,1.33,1.33,0,0,0,.43-.59,2.87,2.87,0,0,0,0-1.89,1.28,1.28,0,0,0-.43-.59,1.07,1.07,0,0,0-.65-.21,1,1,0,0,0-.64.21,1.23,1.23,0,0,0-.44.59,3.05,3.05,0,0,0,0,1.89,1.28,1.28,0,0,0,.44.59,1,1,0,0,0,.64.2Z"
         id="path434" />
      <path
         class="cls-4"
         d="M5.59,88.88v6.68l205,.22-.14-66.55L187.94,50.09l-15,7-12.49.62L144.2,53.18l-10.35-4.13-6.18.47s-15.48,10.69-17.25,13c-1.87.75-12,9.54-12,9.54a54.24,54.24,0,0,1-12.42,4c-6.27,1.06-17.42-1-17.42-1L58.33,70.72,45.42,69l-8.67,1.16L22.92,76.38Z"
         id="path436" />
      <path
         class="cls-5"
         d="M5.13,89.94a.76.76,0,0,1-.55-.25.75.75,0,0,1,0-1.06A101.41,101.41,0,0,1,18.1,78.44c7.35-4.66,18.34-10.22,29-10.22,5.08,0,9.91,1.72,15,3.55,7.7,2.74,15.67,5.57,25.72,3.17s18.52-9.79,26.05-16.31c5.79-5,10.79-9.34,15.14-10.1s9.14,1.21,14.51,3.51c6.55,2.8,14,6,23.38,5.21,10.89-.88,22.19-9,29.75-15.64a127.78,127.78,0,0,0,14-14.41.75.75,0,1,1,1.18.94,131.21,131.21,0,0,1-14.17,14.61c-11.25,9.89-21.55,15.27-30.62,16-9.78.8-17.39-2.46-24.11-5.33-5.15-2.21-9.6-4.11-13.65-3.4s-8.79,4.88-14.41,9.74c-7.66,6.64-16.35,14.16-26.69,16.64s-19-.53-26.58-3.22c-5-1.77-9.72-3.45-14.53-3.45-10.3,0-21,5.42-28.18,10a101.73,101.73,0,0,0-13.29,10,.75.75,0,0,1-.52.21Z"
         id="path438" />
      <path
         class="cls-6"
         d="M136.42,49.09a5.28,5.28,0,1,1-5.28-5.28,5.27,5.27,0,0,1,5.28,5.28Z"
         id="path440" />
      <path
         class="cls-7"
         d="M134,50.27a3.09,3.09,0,1,1-1.66-4,3.07,3.07,0,0,1,1.66,4Z"
         id="path442" />
      <path
         class="cls-8"
         d="M130.27,48.22A1.23,1.23,0,0,1,132,50a1.23,1.23,0,1,1-1.74-1.74Z"
         id="path444" />
    </g>
  </g>
</svg>
