<?xml version="1.0" encoding="utf-8"?>
<!-- Generator: Adobe Illustrator 22.1.0, SVG Export Plug-In . SVG Version: 6.00 Build 0)  -->
<svg version="1.1" id="Calque_1" xmlns="http://www.w3.org/2000/svg" xmlns:xlink="http://www.w3.org/1999/xlink" x="0px" y="0px"
	 viewBox="0 0 710 710" style="enable-background:new 0 0 710 710;" xml:space="preserve">
<style type="text/css">
	.st0{fill:#93C01F;}
	.st1{fill:#575756;}
	.st2{fill:#469936;}
	.st3{fill:#BCD77C;}
</style>
<g>
	<path class="st0" d="M39.3,541.3c1.3,9.8,9.8,16.9,23.7,16.9c7.3,0,16.8-2.7,21.3-7.4l12.6,12.4c-8.4,8.7-22.1,12.9-34.2,12.9
		c-27.4,0-43.7-16.9-43.7-42.4c0-24.2,16.5-41.6,42.3-41.6c26.6,0,43.3,16.5,40.2,49.2H39.3z M82.5,525.1
		c-1.3-10.3-9.4-15.5-20.7-15.5c-10.7,0-19.4,5.2-22.3,15.5H82.5z"/>
	<path class="st0" d="M205.8,563.8c-9.2,9-18.9,12.6-30.7,12.6c-23.1,0-42.3-13.9-42.3-42.1s19.2-42.1,42.3-42.1
		c11.3,0,20,3.2,28.7,11.8l-12.4,13.1c-4.7-4.2-10.5-6.3-16-6.3c-13.2,0-22.9,9.7-22.9,23.6c0,15.2,10.3,23.2,22.6,23.2
		c6.3,0,12.6-1.8,17.4-6.6L205.8,563.8z"/>
	<path class="st0" d="M312.9,534.3c0,22.9-15.7,41.5-41.5,41.5s-41.3-18.6-41.3-41.5c0-22.8,15.8-41.5,41.2-41.5
		S312.9,511.6,312.9,534.3z M249.8,534.3c0,12.1,7.3,23.4,21.6,23.4c14.4,0,21.6-11.3,21.6-23.4c0-11.9-8.4-23.6-21.6-23.6
		C257.1,510.9,249.8,522.5,249.8,534.3z"/>
	<path class="st1" d="M367.1,472.1v22.6h22v16.9H367V546c0,7.6,4.2,11.3,10.3,11.3c3.1,0,6.6-1,9.5-2.4l5.5,16.8
		c-5.7,2.3-10.3,3.2-16.3,3.4c-17.3,0.6-28.6-9.2-28.6-29v-34.4h-14.8v-16.9h14.8v-20.5L367.1,472.1z"/>
	<path class="st1" d="M439.8,494.6l1.5,9.2c6.1-9.8,14.4-11.3,22.4-11.3c8.2,0,16.1,3.2,20.5,7.6l-8.9,17.1c-4-3.4-7.7-5.2-14.2-5.2
		c-10.3,0-19.9,5.5-19.9,20.2v42h-19.7v-79.5h18.3V494.6z"/>
	<path class="st1" d="M522.9,541.3c1.3,9.8,9.8,16.9,23.7,16.9c7.3,0,16.8-2.7,21.3-7.4l12.6,12.4c-8.4,8.7-22.1,12.9-34.2,12.9
		c-27.4,0-43.7-16.9-43.7-42.4c0-24.2,16.5-41.6,42.3-41.6c26.6,0,43.3,16.5,40.2,49.2H522.9z M566.2,525.1
		c-1.3-10.3-9.4-15.5-20.7-15.5c-10.7,0-19.4,5.2-22.3,15.5H566.2z"/>
	<path class="st1" d="M628.4,541.3c1.3,9.8,9.8,16.9,23.7,16.9c7.3,0,16.8-2.7,21.3-7.4l12.6,12.4c-8.4,8.7-22.1,12.9-34.2,12.9
		c-27.4,0-43.7-16.9-43.7-42.4c0-24.2,16.5-41.6,42.3-41.6c26.6,0,43.3,16.5,40.2,49.2H628.4z M671.8,525.1
		c-1.3-10.3-9.4-15.5-20.7-15.5c-10.7,0-19.4,5.2-22.3,15.5H671.8z"/>
	<path class="st0" d="M357.1,68.5c-58,0-105.2,47.2-105.2,105.2s47.2,105.2,105.2,105.2s105.2-47.2,105.2-105.2
		S415.1,68.5,357.1,68.5z"/>
	<path class="st1" d="M364,223.6c2.5-2.2,10.7-9.4,16.1-15.3l1-1.1c9.6-10.7,21.2-24.1,22.8-29.9c0,0,2.7-9,0.9-7.6
		c-1.8,1.4-14.4,20.6-41.8,41.7c-0.5-9.5-1.5-53.3-2-55.8s-3-2.3-3-2.3c-3.4,0-3.8,4.8-3.9,11.9c-0.2,10.2-0.7,56-0.6,71.7
		c-33.5-23.6-39.3-29.9-42.5-31.2c-3.2-1.2-1.6,3.8,3.4,9.7c2,2.3,11.2,9.8,15.6,13.5c10.2,8.7,22,17.2,22.3,25.7
		c0.3,7.2-0.8,106.5-1.8,190.1h14.1C363.9,349.9,363.2,237.4,364,223.6z"/>
	<path class="st2" d="M457.9,228.2c-13.3,27.4-38.2,48.3-68.5,56.2c-1,5.1-1.6,10.3-1.5,15.7c1,38.7,33.2,69.4,72,68.4
		s69.4-33.2,68.4-71.9C527.3,258.2,495.9,228,457.9,228.2z"/>
	<path class="st3" d="M242.2,190.5c-5-1-10.2-1.5-15.5-1.5c-44.7,0-80.9,36.2-80.9,80.9s36.2,80.9,80.9,80.9
		c41.6,0,75.8-31.4,80.3-71.7C272.6,262.4,247.8,229.6,242.2,190.5z"/>
	<path class="st1" d="M455.2,342.6c0-5.4-1.6-4.2-10.9-13.8c-3.5-3.6-5.9-6-7.2-9c-2.8-6.1,1.8-4,1.8-4c4.3,3.8,5.5,6.6,17,14.2
		c-0.1-15.7,0.2-26.6,0.4-35.7c0.2-7.4,0.6-11.5,3.7-11.5c0,0,1.1-0.1,2.1,0.9c0.5,0.6,0.6,1.5,0.6,1.5c0.6,10.8,0.5,15.9,0.9,25.5
		c9.5-4.5,10.1-8.7,12.7-8.2c3.9,0.6-6.9,12.1-12.4,15.7c-0.4,7.2,0.7,71.2,1,126.3h-11.1C454.6,413.2,455.2,347.2,455.2,342.6z"/>
	<path class="st1" d="M231.2,335.5c0.3-8.5,15.7-21.7,26-30.4c4.4-3.7,8.1-7,10.1-9.2c5.1-5.9,6.9-9.8,5.7-12l-1.7-3l-2.1,2.7
		c-4.2,5.5-27.1,22.2-39.2,30.7c0.1-15.7-0.3-61.7-0.6-71.7c-0.2-7.1-1-11.9-4.4-11.9c0,0-0.6-0.3-1.8,0.7c-0.7,0.6-0.7,1.7-0.7,1.7
		c-0.8,21.1-1.1,25-1.6,34.4c-23.5-10.2-28-14.7-31.9-17.3c-3.8-2.4-3.8,2-3.8,2c1.6,5.8,16.3,16.2,35.1,25.2
		c0.6,9.2-0.4,82.9-1.4,167.2h13.3C231.4,377.9,231,340.4,231.2,335.5z"/>
	<path class="st0" d="M32.5,601.9v36.7c0,1.4-1.1,2.5-2.6,2.5c-1.4,0-2.5-1.1-2.5-2.5v-36.7c0-1.5,1.1-2.6,2.5-2.6
		C31.3,599.3,32.5,600.6,32.5,601.9z"/>
	<path class="st0" d="M67.3,622.7v16c0,1.4-1.2,2.5-2.6,2.5s-2.5-1.1-2.5-2.5v-1.5c-2,2.1-5.3,4.3-10.6,4.3c-4.9,0-9.2-3.2-9.2-8.5
		c0-5.3,4.2-9.2,13-9.2h6.9v-0.5c0-5-2.5-7-7.6-7c-3.2,0-5.4,0.7-7.5,1.4c-0.2,0.1-0.5,0.1-0.7,0.1c-1.1,0-2.1-0.9-2.1-2.2
		c0-1,0.5-1.8,1.5-2.1c2.7-1.1,5.8-2,9.8-2C63.7,611.6,67.3,617.2,67.3,622.7z M62.1,632.8V628h-6.2c-5.3,0-8.5,1.2-8.5,4.5
		c0,2.4,1.4,4.5,6,4.5C56.9,637.1,60.2,634.9,62.1,632.8z"/>
	<path class="st0" d="M122,622.7v16.1c0,1.4-1.2,2.5-2.6,2.5s-2.5-1.1-2.5-2.5v-15.5c0-4.3-1.8-6.9-6.2-6.9c-4.1,0-7,2.6-9.3,5.4v17
		c0,1.4-1.2,2.5-2.6,2.5s-2.6-1.1-2.6-2.5v-24.3c0-1.5,1.1-2.6,2.6-2.6c1.4,0,2.6,1.1,2.6,2.6v2.3c2.4-2.6,5.5-5.2,10.5-5.2
		C118.3,611.6,122,616.6,122,622.7z"/>
	<path class="st0" d="M156,622.7v16c0,1.4-1.2,2.5-2.6,2.5c-1.4,0-2.6-1.1-2.6-2.5v-1.5c-2,2.1-5.3,4.3-10.6,4.3
		c-4.9,0-9.2-3.2-9.2-8.5c0-5.3,4.2-9.2,13-9.2h6.9v-0.5c0-5-2.5-7-7.6-7c-3.2,0-5.4,0.7-7.5,1.4c-0.2,0.1-0.5,0.1-0.7,0.1
		c-1.1,0-2.1-0.9-2.1-2.2c0-1,0.5-1.8,1.5-2.1c2.7-1.1,5.8-2,9.8-2C152.5,611.6,156,617.2,156,622.7z M150.9,632.8V628h-6.2
		c-5.3,0-8.6,1.2-8.6,4.5c0,2.4,1.4,4.5,6,4.5C145.8,637.1,149,634.9,150.9,632.8z"/>
	<path class="st0" d="M183.3,638.6c0,1-0.5,1.6-1.3,2c-1.4,0.6-2.9,1-4.7,1c-2.7,0-8.3-0.5-8.3-7.5v-17.6h-4c-0.6,0-1.1-0.5-1.1-1.1
		c0-0.3,0.2-0.7,0.5-1l7.7-7.5c0.2-0.2,0.5-0.5,1-0.5c0.6,0,1.1,0.5,1.1,1.1v4.5h6.4c1.2,0,2.2,1,2.2,2.2c0,1.2-1,2.2-2.2,2.2h-6.4
		v17.1c0,3.3,2.3,3.4,3.7,3.4c1.8,0,2.4-0.5,3.4-0.5C182.3,636.6,183.3,637.3,183.3,638.6z"/>
	<path class="st0" d="M191.4,630.4v-16.1c0-1.4,1.2-2.5,2.6-2.5c1.4,0,2.6,1.1,2.6,2.5v15.5c0,4.3,1.8,6.9,6.2,6.9
		c4.1,0,7-2.6,9.3-5.4v-17c0-1.4,1.2-2.5,2.6-2.5c1.4,0,2.6,1.1,2.6,2.5v24.3c0,1.5-1.1,2.6-2.6,2.6c-1.4,0-2.6-1.1-2.6-2.6v-2.3
		c-2.4,2.6-5.5,5.2-10.5,5.2C195.1,641.6,191.4,636.6,191.4,630.4z"/>
	<path class="st0" d="M245.8,614.1c0,1.5-1.1,2.4-2.6,2.4h-0.3c-3.7,0-6.8,2-8.8,5v17.2c0,1.4-1.2,2.5-2.6,2.5
		c-1.4,0-2.6-1.1-2.6-2.5v-24.3c0-1.4,1.1-2.6,2.6-2.6c1.4,0,2.6,1.2,2.6,2.6v2.4c2-2.7,5-5.3,8.9-5.3h0.3
		C244.6,611.6,245.8,612.7,245.8,614.1z"/>
	<path class="st0" d="M277.9,636.9c0,0.9-0.7,1.6-1.5,2.1c-2.5,1.4-5,2.5-9.9,2.5c-9.2,0-14.7-5.5-14.7-15c0-7.6,4.1-15,13.5-15
		c8.7,0,13.5,6.7,13.5,14.3c0,1.4-1,2.5-2.6,2.5H257c0.6,5.1,3.8,8.4,9.9,8.4c3.4,0,5.5-0.7,7.6-1.8c0.3-0.2,0.6-0.2,1-0.2
		C276.9,634.8,277.9,635.7,277.9,636.9z M257,624.2h16.7c-0.3-5.9-4.8-8.3-8.4-8.3C261.8,615.9,257.4,618.2,257,624.2z"/>
	<path class="st0" d="M328.6,622.7v16c0,1.4-1.2,2.5-2.6,2.5s-2.5-1.1-2.5-2.5v-1.5c-2,2.1-5.3,4.3-10.6,4.3c-4.9,0-9.2-3.2-9.2-8.5
		c0-5.3,4.2-9.2,13-9.2h6.9v-0.5c0-5-2.5-7-7.6-7c-3.2,0-5.4,0.7-7.5,1.4c-0.2,0.1-0.5,0.1-0.7,0.1c-1.1,0-2.1-0.9-2.1-2.2
		c0-1,0.5-1.8,1.5-2.1c2.7-1.1,5.8-2,9.8-2C325.1,611.6,328.6,617.2,328.6,622.7z M323.5,632.8V628h-6.2c-5.3,0-8.6,1.2-8.6,4.5
		c0,2.4,1.4,4.5,6,4.5C318.4,637.1,321.6,634.9,323.5,632.8z"/>
	<path class="st0" d="M379.1,615.8v-13.9c0-1.5,1.1-2.6,2.6-2.6c1.4,0,2.5,1.1,2.5,2.6v36.7c0,1.4-1.1,2.5-2.5,2.5
		c-1.5,0-2.6-1.1-2.6-2.5v-1.5c-2.6,2.7-5.7,4.3-9.7,4.3c-6.9,0-13.7-5.4-13.7-15s6.8-15,13.7-15
		C373.4,611.6,376.5,613.2,379.1,615.8z M379.1,632.4v-11.9c-2.2-2.4-5.3-4.3-8.9-4.3c-5.4,0-9.3,3.5-9.3,10.2
		c0,6.7,3.9,10.2,9.3,10.2C373.9,636.8,376.9,634.9,379.1,632.4z"/>
	<path class="st0" d="M420.4,636.9c0,0.9-0.7,1.6-1.5,2.1c-2.5,1.4-5,2.5-9.9,2.5c-9.2,0-14.7-5.5-14.7-15c0-7.6,4.1-15,13.5-15
		c8.7,0,13.5,6.7,13.5,14.3c0,1.4-1,2.5-2.6,2.5h-19.2c0.6,5.1,3.8,8.4,9.9,8.4c3.4,0,5.6-0.7,7.7-1.8c0.3-0.2,0.6-0.2,1-0.2
		C419.2,634.8,420.4,635.7,420.4,636.9z M399.4,624.2h16.7c-0.3-5.9-4.8-8.3-8.4-8.3C404.1,615.9,399.9,618.2,399.4,624.2z"/>
	<path class="st0" d="M454,601.9v36.7c0,1.4-1.1,2.5-2.6,2.5c-1.4,0-2.6-1.1-2.6-2.5v-36.7c0-1.5,1.1-2.6,2.6-2.6
		C452.9,599.3,454,600.6,454,601.9z"/>
	<path class="st0" d="M488.9,622.7v16c0,1.4-1.2,2.5-2.6,2.5s-2.6-1.1-2.6-2.5v-1.5c-2,2.1-5.3,4.3-10.7,4.3c-4.9,0-9.2-3.2-9.2-8.5
		c0-5.3,4.2-9.2,13-9.2h6.9v-0.5c0-5-2.5-7-7.6-7c-3.2,0-5.4,0.7-7.5,1.4c-0.2,0.1-0.5,0.1-0.7,0.1c-1.1,0-2.1-0.9-2.1-2.2
		c0-1,0.5-1.8,1.5-2.1c2.7-1.1,5.8-2,9.8-2C485.2,611.6,488.9,617.2,488.9,622.7z M483.6,632.8V628h-6.2c-5.3,0-8.6,1.2-8.6,4.5
		c0,2.4,1.4,4.5,6,4.5C478.4,637.1,481.8,634.9,483.6,632.8z"/>
	<path class="st0" d="M541.8,614.4c0,0.5-0.1,0.8-0.3,1.2l-9.9,23.6c-0.5,1.1-1.7,2.1-3.1,2.1h-0.6c-1.4,0-2.6-1-3.1-2.1l-9.9-23.6
		c-0.2-0.4-0.3-0.7-0.3-1.2c0-1.4,1.1-2.6,2.6-2.6c1,0,2,0.6,2.3,1.5l8.7,22l8.7-22c0.3-0.9,1.3-1.5,2.3-1.5
		C540.7,611.8,541.8,613.1,541.8,614.4z"/>
	<path class="st0" d="M572.8,622.7v16c0,1.4-1.2,2.5-2.6,2.5c-1.4,0-2.6-1.1-2.6-2.5v-1.5c-2,2.1-5.3,4.3-10.6,4.3
		c-4.9,0-9.2-3.2-9.2-8.5c0-5.3,4.2-9.2,13-9.2h6.8v-0.5c0-5-2.5-7-7.6-7c-3.2,0-5.4,0.7-7.5,1.4c-0.2,0.1-0.5,0.1-0.7,0.1
		c-1.1,0-2.1-0.9-2.1-2.2c0-1,0.5-1.8,1.5-2.1c2.7-1.1,5.8-2,9.8-2C569.2,611.6,572.8,617.2,572.8,622.7z M567.7,632.8V628h-6.2
		c-5.3,0-8.5,1.2-8.5,4.5c0,2.4,1.4,4.5,6,4.5C562.4,637.1,565.8,634.9,567.7,632.8z"/>
	<path class="st0" d="M589.8,601.9v36.7c0,1.4-1.1,2.5-2.6,2.5c-1.4,0-2.6-1.1-2.6-2.5v-36.7c0-1.5,1.1-2.6,2.6-2.6
		C588.7,599.3,589.8,600.6,589.8,601.9z"/>
	<path class="st0" d="M626.2,636.9c0,0.9-0.7,1.6-1.5,2.1c-2.5,1.4-5,2.5-9.9,2.5c-9.2,0-14.7-5.5-14.7-15c0-7.6,4.1-15,13.5-15
		c8.7,0,13.5,6.7,13.5,14.3c0,1.4-1,2.5-2.6,2.5h-19.2c0.6,5.1,3.8,8.4,9.9,8.4c3.4,0,5.6-0.7,7.7-1.8c0.3-0.2,0.6-0.2,1-0.2
		C625.2,634.8,626.2,635.7,626.2,636.9z M605.4,624.2h16.7c-0.3-5.9-4.8-8.3-8.4-8.3C610.2,615.9,605.8,618.2,605.4,624.2z"/>
	<path class="st0" d="M636.7,630.4v-16.1c0-1.4,1.2-2.5,2.6-2.5c1.4,0,2.6,1.1,2.6,2.5v15.5c0,4.3,1.8,6.9,6.2,6.9
		c4.1,0,7-2.6,9.3-5.4v-17c0-1.4,1.2-2.5,2.6-2.5c1.4,0,2.6,1.1,2.6,2.5v24.3c0,1.5-1.1,2.6-2.6,2.6s-2.6-1.1-2.6-2.6v-2.3
		c-2.4,2.6-5.5,5.2-10.5,5.2C640.3,641.6,636.7,636.6,636.7,630.4z"/>
	<path class="st0" d="M690.9,614.1c0,1.5-1.1,2.4-2.6,2.4h-0.3c-3.7,0-6.8,2-8.8,5v17.2c0,1.4-1.2,2.5-2.6,2.5s-2.6-1.1-2.6-2.5
		v-24.3c0-1.4,1.1-2.6,2.6-2.6c1.4,0,2.6,1.2,2.6,2.6v2.4c2-2.7,5-5.3,8.9-5.3h0.3C689.9,611.6,690.9,612.7,690.9,614.1z"/>
</g>
</svg>
