<svg id="Calque_1" data-name="Calque 1" xmlns="http://www.w3.org/2000/svg" viewBox="0 0 287.66 99.26"><defs><style>.cls-1{fill:#274086;}.cls-2{fill:#cddeef;}.cls-3{fill:#5992ca;stroke:#5992ca;stroke-miterlimit:10;}.cls-4{fill:none;}</style></defs><title>logo</title><path class="cls-1" d="M2041.21,126.82v19.36c0,5.72-.36,8-0.66,8.91a8.75,8.75,0,0,1-3.39,4.47,10.58,10.58,0,0,1-6.14,1.72,10.82,10.82,0,0,1-6.25-1.78,8.6,8.6,0,0,1-3.44-4.73c-0.29-1-.65-3.36-0.65-8.59V126.82h-7.92v19.92c0,5.63.67,9.95,2,12.84a15.52,15.52,0,0,0,6.18,7,21.75,21.75,0,0,0,20.19,0q0.63-.39,1.23-0.83v2.33h6.92l0-41.24h-8Z" transform="translate(-1898.46 -89.51)"/><path class="cls-1" d="M2111.08,128.09a13.93,13.93,0,0,0-7.82-2.25,16.05,16.05,0,0,0-8.73,2.57,18.5,18.5,0,0,0-5.06,4.85,13.57,13.57,0,0,0-1.89-2.92A12.88,12.88,0,0,0,2083,127a14.63,14.63,0,0,0-5.88-1.21,16,16,0,0,0-11.63,4.92v-3.93h-7.92v41.25h7.92V150.36c0-4.56.44-8,1.31-10.08a10.75,10.75,0,0,1,3.86-4.87,9.58,9.58,0,0,1,5.53-1.79,7.26,7.26,0,0,1,4.24,1.22,6.44,6.44,0,0,1,2.45,3.23c0.36,1,.78,3.4.78,8.91v21.08h7.92V151.59c0-5.27.43-9,1.26-11.2a10.74,10.74,0,0,1,3.8-4.95,9.59,9.59,0,0,1,5.67-1.83,7.53,7.53,0,0,1,4.23,1.16,6.18,6.18,0,0,1,2.42,3c0.36,0.93.78,3.07,0.78,7.92v22.38h8V145.69c0-5-.53-8.77-1.59-11.33A13.46,13.46,0,0,0,2111.08,128.09Z" transform="translate(-1898.46 -89.51)"/><path class="cls-1" d="M2008.06,164.86a13.52,13.52,0,0,1-5.39-6.11c-1.19-2.62-1.8-6.65-1.8-12V112.05h-7.93v41.1a30.5,30.5,0,0,0,.7,7,10.56,10.56,0,0,0,4.23,5.82,11.43,11.43,0,0,0,1.57.9,13.32,13.32,0,0,0,5.4,1.21h1.05a13.93,13.93,0,0,0,3.55-.58l2.57-.79-2.46-1.08A12.87,12.87,0,0,1,2008.06,164.86Z" transform="translate(-1898.46 -89.51)"/><path class="cls-1" d="M2173,164.86a13.51,13.51,0,0,1-5.39-6.11c-1.19-2.6-1.79-6.62-1.8-11.93v-20H2158v4.49a19,19,0,0,0-13.72-5.47,20.45,20.45,0,0,0-15,6.32,20.93,20.93,0,0,0-6.23,15.19,21.28,21.28,0,0,0,6.17,15.37,20.89,20.89,0,0,0,24,4.29,27.51,27.51,0,0,0,6.28-4.73,10.49,10.49,0,0,0,3.35,3.7,11.46,11.46,0,0,0,1.57.9,13.33,13.33,0,0,0,5.42,1.21h1a13.88,13.88,0,0,0,3.55-.58l2.56-.79-2.46-1.08A13.15,13.15,0,0,1,2173,164.86Zm-14.72-17.22a14.33,14.33,0,0,1-1.76,7.1,12.83,12.83,0,0,1-5,4.94,14,14,0,0,1-6.92,1.84,13.12,13.12,0,0,1-6.74-1.85,13.66,13.66,0,0,1-5-5.18,14,14,0,0,1,0-14,13.34,13.34,0,0,1,11.81-6.93,13.09,13.09,0,0,1,9.69,4A13.84,13.84,0,0,1,2158.28,147.64Z" transform="translate(-1898.46 -89.51)"/><polygon class="cls-1" points="21.57 35.46 21.57 63.47 34.67 73.67 34.67 92.36 8.41 73.67 8.41 25.59 34.67 6.89 34.67 25.27 21.57 35.46"/><polygon class="cls-2" points="60.93 25.59 60.93 73.67 34.67 92.36 34.67 73.67 47.76 63.47 47.76 35.46 34.67 25.27 34.67 6.89 60.93 25.59"/><polygon class="cls-3" points="47.76 35.46 47.76 63.48 34.66 73.67 21.57 63.48 21.57 35.46 34.66 25.27 47.76 35.46"/><rect class="cls-4" width="287.66" height="99.26"/></svg>